<svg xmlns="http://www.w3.org/2000/svg" viewBox="0 0 165 36" width="165" height="36">
  <defs>
    <linearGradient id="btn-grad" x1="0%" y1="0%" x2="100%" y2="100%">
      <stop offset="0%" stop-color="#FFB347"/>
      <stop offset="100%" stop-color="#FF7B00"/>
    </linearGradient>
    <filter id="shadow" x="-5%" y="-5%" width="110%" height="120%">
      <feDropShadow dx="0" dy="2" stdDeviation="2" flood-color="#000" flood-opacity="0.15"/>
    </filter>
  </defs>

  <rect x="2" y="2" width="161" height="32" rx="16" fill="url(#btn-grad)" filter="url(#shadow)"/>
  
  <g transform="translate(10, 7) scale(0.9)">
    <path fill="#FFFFFF" d="M12 21.35l-1.45-1.32C5.4 15.36 2 12.28 2 8.5 2 5.42 4.42 3 7.5 3c1.74 0 3.41.81 4.5 2.09C13.09 3.81 14.76 3 16.5 3 19.58 3 22 5.42 22 8.5c0 3.78-3.4 6.86-8.55 11.54L12 21.35z"/>
  </g>

  <text x="36" y="23" font-family="'Hiragino Maru Gothic ProN', 'Yu Rounded', 'Rounded M+ 1c', sans-serif" font-size="13" font-weight="bold" fill="#FFFFFF" letter-spacing="0.5">ボランティア募集中</text>
</svg>
